<?xml version="1.0" encoding="utf-8"?>
<svg xmlns="http://www.w3.org/2000/svg" height="4800" width="9480" viewBox="640.436 -217.42 2128.433 985.463" xmlns:bx="https://boxy-svg.com" preserveAspectRatio="none"><defs><bx:export><bx:file format="svg"/></bx:export><radialGradient gradientUnits="userSpaceOnUse" cx="1697.112" cy="368.535" r="1062.54" id="gradient-1" gradientTransform="matrix(1.006663, 0, 0, 1.009973, -3.963051, 2.165753)"><stop offset="0" style="stop-color: rgb(87.843% 56.471% 0% / 0.604)"/><stop offset="1" style="stop-color: rgb(55.795% 30.468% 0% / 0.604)"/></radialGradient><radialGradient gradientUnits="userSpaceOnUse" cx="1656.53" cy="368.049" r="1061.718" id="gradient-0" gradientTransform="matrix(1.006663, 0, 0, 1.009973, -3.963051, 2.165753)"><stop offset="0" style="stop-color: rgb(100% 64.314% 0%)"/><stop offset="1" style="stop-color: rgb(255, 164, 0); stop-opacity: 0.36;"/></radialGradient></defs><rect x="634.837" y="-216.86" width="2139.24" height="1182.47" style="fill: rgb(204, 236, 255); stroke: url(&quot;#gradient-1&quot;);"/><path id="world" d="M 1534.82 -217.15 C 1533.17 -217.16 1531.44 -217.14 1529.73 -217.12 C 1525.24 -217.07 1520.75 -216.92 1516.44 -216.66 C 1508.6 -216.22 1496.94 -215.65 1490.55 -215.4 C 1468.38 -215.76 1436.06 -210.36 1417.05 -210.27 C 1406.32 -216.04 1389.88 -214.47 1379.97 -214.53 C 1354.26 -215.45 1330.85 -211.56 1307.13 -210.22 C 1284.44 -208.17 1288.05 -208.93 1278.77 -206.34 C 1267.67 -202.1 1255.72 -204.7 1264.53 -192.58 C 1281.87 -188.63 1274.81 -187.48 1271.9 -184.43 C 1261.46 -181.12 1257.33 -183.85 1249.43 -183.96 C 1245.78 -187.1 1232.84 -182.49 1236.24 -182.33 C 1236.84 -175.09 1228.4 -174.61 1229.64 -182.1 C 1221.94 -180.37 1219.02 -180.13 1202.74 -182.51 C 1200.73 -181.74 1197.85 -178.8 1199.13 -178.8 C 1202.97 -175.31 1212.75 -172.48 1215.29 -172.56 C 1226.88 -177.68 1225.25 -169.41 1227 -169.34 C 1237.66 -169.21 1244.07 -178.73 1249.36 -178.24 C 1250.68 -176.04 1241.5 -171.88 1244.55 -170.95 C 1251.23 -169.64 1279.9 -169 1281.26 -170.15 C 1285.82 -170.34 1302.98 -169.18 1303.36 -175.26 C 1287.53 -175.43 1254.36 -171.3 1263.35 -178.8 C 1279.91 -184.08 1294.19 -177.81 1307.31 -177.08 C 1308.12 -179.5 1319.55 -181.84 1319.75 -183.72 C 1324.82 -189.74 1336.93 -189.83 1340.84 -191.63 C 1347.83 -196.1 1354.58 -197.67 1360.25 -198.22 C 1371.18 -201.24 1377.95 -202.6 1389.61 -199.49 C 1389.61 -197.79 1385.56 -196.63 1377.53 -195.96 C 1372.23 -194.98 1342.73 -194.81 1345.15 -186.44 C 1366.91 -171.5 1364.24 -183.7 1389.97 -177.85 C 1411.16 -173.74 1387.43 -160.04 1393.34 -151.74 C 1389.39 -141.96 1386.77 -130.27 1385.3 -124.01 C 1389.06 -120.93 1383.52 -115.79 1385.92 -104.47 C 1384.43 -99 1392.9 -88.522 1393.93 -83.297 C 1403.03 -83.961 1413.36 -73.783 1418.7 -77.349 C 1421.1 -80.716 1423.22 -83.829 1426.21 -86.875 C 1430.19 -92.802 1433.9 -98.014 1440.69 -100.99 C 1441.37 -106.69 1450.35 -110.58 1451.23 -113.5 C 1457.52 -117.98 1463.26 -111.4 1467.28 -116.03 C 1475.89 -115.98 1485.39 -126.93 1491.59 -128.5 C 1501.67 -133.52 1516.39 -130.44 1530.08 -136.66 C 1538.83 -139.07 1545.96 -145.2 1550.51 -149.61 C 1543.17 -158.44 1546.19 -156.67 1564.24 -167.67 C 1568.91 -169.48 1573.7 -171.25 1577.25 -172.8 C 1569.76 -180.56 1577.85 -182.72 1577.5 -184.61 C 1575.4 -203.55 1576.38 -198.62 1605.38 -206.29 C 1614 -207.83 1611.94 -209.06 1599.78 -209.59 C 1585.73 -208.99 1571.26 -212.21 1560.43 -215.37 C 1556.9 -216.46 1546.45 -217.11 1534.82 -217.15 Z M 1892.8 -210.06 C 1891.09 -210.1 1888.4 -209.42 1884.64 -207.64 C 1880.84 -208.05 1873.78 -201.98 1871.09 -202.41 C 1868.82 -201.32 1873.28 -200.86 1874.29 -200.74 C 1880.5 -202.53 1875.61 -203.24 1880.67 -201.72 C 1884.78 -201.49 1900.24 -198.08 1909.82 -203.84 C 1905.56 -206.32 1899.3 -207.01 1894.8 -207.15 C 1895.61 -208.75 1894.99 -210 1892.8 -210.06 Z M 2044.1 -206.63 C 2036.52 -206.5 2027.9 -203.32 2031.55 -198.97 C 2039.05 -197.86 2070.03 -190.42 2073.32 -194.34 C 2066.24 -199.76 2051.48 -199.34 2053.82 -203.19 C 2052.84 -205.69 2048.65 -206.7 2044.1 -206.63 Z M 1861.2 -205.51 C 1860.58 -205.53 1860.04 -205.47 1859.62 -205.34 C 1854.1 -201.03 1851.87 -205.11 1842.98 -203.79 C 1838.6 -201.25 1861.5 -199.79 1866.27 -199.59 C 1869.35 -202.5 1863.58 -201.38 1867.12 -203.76 C 1865.34 -204.84 1862.99 -205.47 1861.2 -205.51 Z M 1740.26 -203.29 C 1736.03 -203.27 1732.47 -202.78 1730.48 -201.31 C 1705.02 -201.14 1700.56 -199.81 1700.8 -197.95 C 1705.28 -189.85 1703.26 -192.12 1722.19 -183.1 C 1727.28 -180.64 1729.27 -180.86 1729.96 -183.96 C 1734.4 -193.43 1749.88 -190.13 1745.32 -187.49 C 1742.45 -183.4 1759.01 -185.22 1761.01 -188.26 C 1754.5 -190.61 1732.29 -193.68 1746.95 -196.5 C 1745.67 -194.4 1773.9 -197.56 1767.75 -201.01 C 1762.03 -200.94 1749.56 -203.31 1740.26 -203.29 Z M 2079.06 -197.2 C 2078.18 -197.22 2077.5 -197.16 2077.11 -197 C 2076.92 -194.34 2076.36 -191.5 2077.19 -189.13 C 2079.08 -189.13 2096.94 -190.97 2098.59 -191.32 C 2101.57 -193.28 2085.26 -197.1 2079.06 -197.2 Z M 2098.15 -188.13 C 2096.77 -188.14 2095.47 -188.06 2094.53 -187.86 C 2091.24 -187.16 2089.52 -184.46 2091.07 -182.62 C 2090.99 -181.63 2078.89 -178.87 2077.72 -179.79 C 2078.58 -181.27 2061.93 -179.99 2060.38 -178.48 C 2053.12 -176.16 2045.23 -175.36 2037.94 -172.77 C 2037.58 -168.93 2033.14 -173.19 2031.99 -170.49 C 2031.55 -168.13 2037.78 -169.23 2040.7 -166.96 C 2034.96 -164.37 2021.72 -165.74 2014.91 -164.7 C 2019.73 -158.91 2034.31 -154.17 2031.65 -153.95 C 2022.14 -154.22 1994.63 -166.2 1990.85 -161.88 C 1993.07 -156.39 2003 -161.75 1991.62 -151.94 C 1996.79 -148.58 2000.43 -143.59 2003 -137.59 C 2005.04 -135.6 2018.03 -138.08 2012.24 -136.47 C 2007.59 -133.33 2010.86 -129.93 2010.77 -124.91 C 2009.52 -122.5 2004.74 -119.39 2002.83 -119.78 C 1996.06 -121.48 2001.21 -121.57 2002.57 -124.56 C 2005.78 -129.13 2006.14 -133.16 2001.45 -135.24 C 1997.54 -137.32 1994.73 -142.01 1993.77 -146.37 C 1984.45 -153.68 1988.12 -156.99 1987.13 -158.42 C 1985.13 -160.43 1973.63 -161.32 1977.12 -161.51 C 1984.15 -162.32 1970.04 -165.79 1970.39 -163.1 C 1969.53 -159.81 1967.39 -152.55 1965.91 -151.69 C 1960.01 -147.13 1967.58 -147.9 1967.64 -143.65 C 1967.37 -138.55 1983.24 -136.89 1981.01 -133.22 C 1968.86 -135.59 1955.18 -141.09 1942.61 -141.9 C 1938.86 -141.07 1930.22 -147.73 1927.77 -145.37 C 1927.29 -140.25 1937.12 -140.21 1940.62 -137.04 C 1942.41 -135.06 1937.28 -132.34 1935.79 -133.91 C 1932.74 -137.86 1928.13 -134.45 1920.79 -134.26 C 1919.54 -131.57 1908.36 -131.59 1911.29 -136.04 C 1908.6 -138.11 1902.54 -134.25 1899.39 -133.89 C 1895.07 -133.89 1891.96 -129.93 1887.84 -129.72 C 1883.18 -129.21 1886.02 -120.68 1873.59 -124.15 C 1868.76 -126.76 1873.67 -128.32 1877.31 -129.32 C 1872.24 -135.01 1854.9 -136.73 1860.66 -132.77 C 1865.49 -131.34 1861.64 -125.64 1865.4 -123.88 C 1871.91 -118.44 1860.87 -117.98 1858.94 -121.63 C 1856.52 -121.98 1854.95 -118.75 1852.02 -117.71 C 1849.43 -116.88 1847.87 -115.39 1845.72 -113.69 C 1854.58 -104.22 1846.14 -109.5 1832.61 -111.65 C 1828 -107.25 1837.57 -107.23 1839.43 -105.22 C 1840.3 -103.01 1835.03 -103.32 1830.54 -105.73 C 1826.35 -106.38 1824.88 -109.1 1822.7 -111.22 C 1820.64 -119.64 1818.81 -116.94 1814.67 -120.61 C 1814.33 -121.42 1815.88 -121.35 1821.23 -120.25 C 1839.27 -116.58 1844.26 -116.59 1849.62 -120.35 C 1856.86 -124.28 1844.01 -132.46 1841.84 -131.09 C 1837.55 -132.51 1832.18 -134.48 1828.74 -135.96 C 1822.79 -139.28 1813.88 -136.79 1808.89 -140.5 C 1804.11 -143.39 1797.74 -141.64 1792.94 -142.23 C 1794.92 -142.78 1797.23 -143.89 1798.2 -145.11 C 1794.99 -145.6 1785.25 -149.51 1782.66 -149.54 C 1774.89 -148.23 1773.64 -151.75 1770.5 -149.54 C 1767.19 -147.97 1754.19 -148.91 1754.96 -146.1 C 1752.42 -143.98 1746.95 -143.07 1746.68 -143.3 C 1744.63 -145.24 1739.01 -144.4 1739.01 -142.15 C 1739.01 -140.91 1738.91 -140.84 1735.81 -140.5 C 1730.78 -136.95 1718.78 -136.68 1719.78 -133.41 C 1719.89 -131.08 1712.79 -132.89 1712.28 -129.8 C 1714.55 -128.23 1716.17 -130.42 1719.17 -131.07 C 1723.81 -129.19 1714.02 -119.91 1711.4 -119.18 C 1707.27 -115.14 1703.16 -108.62 1702.85 -108.51 C 1695.3 -101.99 1691.79 -103.59 1690.44 -102.13 C 1685.53 -97.092 1679.33 -95.585 1674.58 -92.762 C 1671.98 -91.194 1671.89 -90.943 1671.81 -84.643 C 1672.56 -79.289 1673.32 -71.261 1673.54 -71.221 C 1677.21 -65.545 1684.95 -61.927 1690.77 -65.604 C 1692.42 -66.77 1695.34 -68.538 1697.44 -69.553 C 1699.41 -70.567 1701.13 -72.055 1701.13 -72.839 C 1701.51 -74.929 1704.47 -68.629 1704.52 -67.946 C 1705.47 -63.827 1708.36 -59.547 1710.97 -56.763 C 1713.33 -54.493 1713.38 -52.543 1711.59 -50.675 C 1705.55 -51.047 1703.48 -48.425 1702.78 -51.006 C 1705.72 -54.131 1697.81 -54.834 1700.97 -56.994 C 1702.01 -57.608 1701.91 -62.621 1700.87 -62.621 C 1699.09 -60.933 1696.04 -58.361 1693.21 -58.321 C 1688.54 -58.321 1685.36 -49.148 1688.79 -45.572 C 1690.62 -43.241 1688.43 -42.577 1688.72 -40.618 C 1691.08 -38.156 1691.14 -33.224 1686.29 -33.886 C 1682.58 -34.82 1679.77 -31.807 1676.39 -32.259 C 1672.33 -32.852 1668.61 -30.581 1667.92 -27.095 C 1667.07 -22.513 1661.37 -17.349 1654.92 -15.239 C 1651.11 -13.984 1650.5 -13.481 1649.9 -10.688 C 1649.02 -5.504 1643.64 -7.785 1641.37 -4.077 C 1637.43 -0.32 1630.19 -10.035 1629.88 -3.937 C 1631.7 1.881 1631.53 2.373 1627.99 2.353 C 1623.33 1.881 1618.26 0.736 1613.91 2.835 C 1611.37 5.789 1613.61 9.044 1615.92 9.185 C 1627.7 9.868 1633.76 25.37 1630.14 36.995 C 1629.19 40.14 1626.77 41.848 1624.35 41.084 C 1613.9 38.331 1604.72 41.988 1595.28 38.692 C 1591.66 37.476 1582.37 42.43 1583.63 46.027 C 1584.06 47.213 1584.6 50.839 1584.68 54.095 C 1584.64 61.579 1582.75 65.85 1579.59 70.772 C 1578.88 79.353 1583.03 80.498 1581.66 86.265 C 1583.21 92.664 1593.53 82.949 1597.08 91.188 C 1601.88 99.166 1600.76 93.82 1597.53 101.536 C 1594.59 108.659 1592.6 110.96 1587.26 113.512 C 1578.34 117.33 1578.71 121.46 1574.92 126.815 C 1568.43 141.784 1577.13 147.421 1553.96 155.107 C 1551.69 156.232 1538.98 173.513 1538.87 176.004 C 1532.77 186.182 1525.43 195.927 1522.74 207.501 C 1523.02 210.766 1526.11 207.415 1527.22 221.591 C 1528.71 234.03 1523.39 247.207 1518.17 254.078 C 1527.45 260.601 1519.04 268.139 1525.06 274.223 C 1532.44 281.723 1534.41 283.595 1540.59 290.144 C 1543.72 293.519 1547.47 303.619 1547.93 306.788 C 1555.84 312.482 1562.95 317.918 1568.11 322.544 C 1578.55 331.968 1581.14 332.775 1588.99 328.972 C 1593.55 326.769 1595.8 326.252 1602.36 325.934 C 1609.61 325.581 1613.49 326.166 1617.54 328.188 C 1624.38 328.929 1630.09 321.545 1637.05 321.201 C 1643 318.161 1649.37 316.908 1655.07 316.709 C 1661.7 315.995 1667.89 320.552 1668.28 327.578 C 1671.35 335.127 1681.08 331.128 1687.85 330.376 C 1696.22 331.234 1698.24 345.312 1694.93 352.346 C 1694.03 354.557 1694.38 370.099 1690.52 368 C 1687.78 378.977 1711.44 395.143 1712.28 405.401 C 1718.64 415.537 1718.07 432.639 1720.03 437.57 C 1721.93 442.347 1722.8 445.969 1722.71 448.568 C 1716.63 457.373 1716.44 472.921 1709.86 481.271 C 1706.07 497.57 1715.5 507.474 1720.45 519.567 C 1727.77 532.355 1727.28 544.579 1729.96 559.076 C 1731.58 571.442 1755.93 599.103 1747.46 607.991 C 1748.74 618.687 1751.81 616.297 1756.7 621.545 C 1758.58 623.696 1760.3 623.696 1762.48 621.804 C 1769.21 616.088 1783.97 618.263 1791.21 618.103 C 1800.53 615.541 1811.07 611.176 1817.94 603.613 C 1827.81 599.847 1829.64 580.059 1839.09 578.516 C 1849.02 563.2 1842.99 554.519 1853.32 550.221 C 1866.79 540.551 1859.09 525.537 1858.93 515.368 C 1860.55 511.109 1879.88 493.608 1882.84 492.407 C 1890.33 489.641 1896.49 483.342 1899.29 475.919 C 1900.41 468.665 1898.52 461.113 1898.6 454.188 C 1899.49 433.936 1895.14 441.024 1893.17 432.511 C 1893.21 421.37 1890.99 416.646 1888.25 408.981 C 1889.88 392.93 1902.63 384.006 1908.61 373.594 C 1912.34 366.314 1923.97 353.784 1931.14 349.334 C 1935.79 346.434 1949.42 331.477 1949.51 329.213 C 1956.1 316.724 1966.48 304.452 1966.76 290.486 C 1970.96 285.626 1969.31 270.106 1963.49 275.485 C 1955.68 281.143 1937 280.25 1930.1 284.3 C 1912.17 290.683 1916.93 270.789 1913.96 267.655 C 1900.7 250.693 1891.25 251.621 1889.13 242.483 C 1886.4 227.045 1875.47 225.257 1874.97 211.933 C 1870.64 193.888 1865 189.658 1858.23 176.949 C 1858.78 172.739 1842.68 149.832 1842.54 147.149 C 1843.59 143.784 1848.82 156.986 1852.45 157.689 C 1854.13 156.915 1855.39 155.146 1857.28 155.107 C 1860.46 157.317 1863.33 162.15 1865.4 166.028 C 1867.97 169.092 1874.66 183.339 1876.01 183.51 C 1879.58 184.976 1884.23 194.33 1883.6 198.138 C 1881.27 206.541 1898.56 217.415 1898.6 221.475 C 1898.92 224.365 1910.47 237.862 1901.8 236.647 C 1907.62 247.633 1913.87 248.333 1915.43 263.541 C 1917.81 278.677 1929.55 264.505 1935.35 264.4 C 1956.89 263.697 1970.94 237.8 1988.66 237.723 C 2011.95 222.418 2019.36 216.358 2020.25 196.902 C 2013.31 187.508 1996.14 184.856 1995.93 172.266 C 1995.93 166.902 1994.89 165.887 1993.08 169.494 C 1972.72 199.775 1962.64 184.635 1963.92 169.545 C 1948.54 168.871 1951.71 162.853 1945.37 155.107 C 1934.2 142.879 1944.83 141.583 1950.19 140.097 C 1956.57 143.211 1957.75 154.524 1965.04 157.176 C 1977.67 163.717 1978.02 167.113 1988.94 165.756 C 1993.07 165.274 1995.27 160.009 1997.55 163.064 C 2000.49 171.684 2004.51 173.653 2011.55 174.467 C 2025.4 176.356 2040.89 177.501 2053.64 175.623 C 2063.63 171.865 2065.35 186.694 2070.11 186.945 C 2082.2 194.652 2075.79 193.486 2078.06 197.324 C 2078.06 198.961 2089.96 210.174 2091.68 210.13 C 2106.16 204.088 2101.11 206.352 2104.61 218.652 C 2107.69 228.705 2109.38 239.073 2113.85 248.185 C 2116.83 253.749 2119.96 259.751 2121.44 265.588 C 2123.7 274.991 2132.72 282.813 2133.26 292.558 C 2133.26 294.795 2137.92 301.931 2140.17 303.127 C 2147.87 304.129 2145.72 293.646 2153.28 295.863 C 2156.94 295.864 2151.22 294.576 2152.59 290.004 C 2160.91 287.934 2154.22 277.131 2157.25 272.79 C 2158.63 271.164 2158.72 264.134 2157.51 257.516 C 2155.77 248.299 2156.2 245.856 2159.67 246.708 C 2160.93 246.489 2169.47 239.329 2169.49 238.446 C 2171.55 232.406 2179.22 228.66 2183.12 223.066 C 2185.78 218.56 2190.7 217.211 2194.35 213.918 C 2197.87 210.428 2194.5 207.319 2197.11 204.184 C 2202.39 200.73 2206.16 204.035 2211.26 202.413 C 2218.96 200.147 2220.33 200.167 2222.03 195.153 C 2224.04 196.761 2226.38 200.117 2226.44 201.681 C 2224.17 206.099 2240.27 218.148 2239.98 219.029 C 2239.6 229.274 2242.41 219.972 2246.18 228.334 C 2248.39 234.888 2247.42 238.325 2246.97 245.226 C 2252.54 247.522 2264.19 243.195 2264.39 237.479 C 2264.49 234.786 2270.17 246.732 2270.95 251.061 C 2271.46 254.637 2281.61 278.606 2274.75 276.019 C 2276.01 280.398 2285.66 282.047 2275.61 282.31 C 2278.78 286.216 2278.93 291.483 2277.94 295.812 C 2277.08 299.435 2278.21 306.958 2279.32 305.761 C 2283.04 303.811 2285.28 308.58 2287.7 311.758 C 2289.54 322.146 2292.6 312.734 2292.69 322.843 C 2292.1 328.811 2299.55 338.699 2299.76 341.397 C 2299.76 342.773 2301.39 344.428 2305.98 347.499 C 2308.31 354.224 2318.68 353.924 2318.75 358.231 C 2319.55 360.834 2325.83 355.013 2319.78 354.659 C 2319.99 354.696 2319.11 351.321 2319 349.926 C 2312.67 341.811 2316.02 334.706 2313.3 326.795 C 2312.69 325.417 2300.27 311.674 2298.91 312.001 C 2294.58 307.791 2290.39 292.103 2289.14 290.545 C 2282.38 300.366 2285.14 283.418 2286.32 279.031 C 2288.22 275.045 2286.59 264.173 2290.45 263.705 C 2295.34 264.528 2291.28 270.296 2295.89 270.262 C 2300.79 271.304 2307.13 275.841 2308.39 281.398 C 2308.39 282.723 2311.5 285.917 2312.8 285.917 C 2311.03 287.521 2324.25 287.897 2321.5 290.141 C 2319.95 291.088 2320.32 300.546 2321.95 300.546 C 2327.27 299.072 2333.99 287.257 2335.07 286.561 C 2340.21 286.132 2342.64 281.361 2346.97 279.893 C 2351.43 274.069 2348.5 267.577 2347.82 262.059 C 2347.34 257.496 2341.8 243.752 2337.81 242.481 C 2335.83 241.853 2325.64 232.173 2325.64 230.916 C 2323.17 227.147 2319.81 223.846 2319.78 220.028 C 2319.8 214.29 2332.11 201.783 2337.45 203.729 C 2339.13 204.456 2343.23 203.59 2342.55 205.476 C 2342.26 206.285 2342.51 207.662 2343.04 209.055 C 2338.02 210.065 2336.65 219.099 2340.59 221.347 C 2349.84 224.601 2349.6 217.232 2352.78 211.778 C 2353.77 208.257 2351.01 208.128 2348.26 208.481 C 2348.14 206.772 2348.43 205.227 2351.96 204.616 C 2354.94 201.15 2367.63 203.23 2366.63 196.41 C 2365.41 192.351 2371.07 202.532 2371.37 198.218 C 2374.27 194.33 2383.91 195.114 2385.42 191.305 C 2386.88 187.699 2398.71 182.072 2396.75 178.104 C 2399.53 176.427 2404.05 162.059 2404.16 159.869 C 2406.48 148.988 2411.22 145.371 2408.3 136.178 C 2403.19 141.232 2405.68 133.987 2402.42 127.377 C 2399.55 122.946 2395.36 122.244 2392.94 118.024 C 2389.5 111.975 2385.69 108.036 2381.75 106.127 C 2377.83 104.309 2377.5 103.887 2378 101.918 C 2378.38 93.6 2392.03 90.926 2392.07 87.601 C 2395.46 85.983 2373.95 80.92 2375.17 83.573 C 2374.6 87.843 2369.95 87.5 2368.78 83.914 C 2367.82 77.233 2356.96 80.608 2356.7 74.54 C 2359.26 70.321 2366.05 70.622 2369.65 63.187 C 2371.75 57.319 2379.45 61.027 2377.41 65.417 C 2376.57 67.186 2378.23 75.926 2378.36 75.926 C 2378.78 75.926 2380.6 74.329 2382.51 72.39 C 2386.78 68.01 2394.33 66.814 2399.86 69.939 C 2401.84 70.321 2401.47 82.417 2402.42 81.101 C 2404.07 79.021 2420.12 87.169 2415.37 87.983 C 2413.9 87.983 2414.42 89.48 2416.93 92.122 C 2420.53 96.091 2421.32 97.226 2420.82 97.799 C 2418.73 101.195 2421.8 103.455 2421.84 106.218 C 2421.84 108.027 2422.16 108.168 2425.72 107.967 C 2429.95 107.063 2439.32 104.35 2439.53 99.738 C 2439.53 96.302 2434.44 87.35 2430.29 83.492 C 2426.72 77.473 2418.7 75.444 2414.85 70.15 C 2413.04 65.226 2424.96 63.177 2421.67 56.677 C 2416.56 41.114 2434.17 46.701 2437.98 45.886 C 2440.73 44.861 2445.55 39.295 2445.55 37.206 C 2450.66 30.505 2448.14 12.43 2450.56 6.231 C 2451.12 2.856 2446.63 -7.393 2444.6 -9.07 C 2441.42 -11.281 2438.06 -20.454 2440.39 -20.454 C 2447.5 -16.305 2453.89 -8.769 2457.47 -1.445 C 2459.32 2.956 2463.81 5.709 2465.4 10.018 C 2468.03 15.163 2470.66 19.724 2475.05 23.873 C 2474.59 20.93 2473.43 17.544 2476.27 18.086 C 2478.14 18.227 2481.67 22.256 2481.79 20.779 C 2481.79 19.162 2479.02 15.695 2477.66 15.695 C 2469.19 10.29 2468.35 8.16 2464.97 -0.009 C 2466.86 -4.087 2476.57 3.508 2476.64 2.111 C 2473.86 -0.59 2470.24 -2.661 2467.49 -5.343 C 2465.57 -7.272 2460.66 -11.933 2456.42 -15.722 C 2450.41 -21.278 2435.62 -38.89 2432.28 -37.996 C 2431.07 -37.533 2431.32 -37.141 2433.56 -35.775 C 2437.69 -19.871 2431.09 -30.893 2420.28 -36.479 C 2406.4 -37.031 2384.97 -36.398 2391.39 -45.601 C 2395.11 -50.324 2396.46 -52.976 2395.36 -53.337 C 2396.07 -56.231 2401.13 -71.432 2402.5 -71.944 C 2405.35 -73.02 2417.7 -73.16 2418.4 -72.135 C 2418.64 -71.643 2419.68 -71.221 2420.61 -71.221 C 2421.57 -71.221 2422.16 -71.532 2421.92 -71.895 C 2421.76 -72.266 2424.69 -72.447 2428.5 -72.326 C 2436.76 -70.177 2434.02 -75.732 2435.89 -75.199 C 2444.46 -76.245 2449.78 -69.493 2450.89 -69.473 C 2455.28 -69.724 2476.06 -71.351 2463.17 -74.748 C 2457.16 -76.606 2460.83 -88.692 2464.97 -89.105 C 2469.73 -93.726 2480.26 -83.408 2481.01 -83.729 C 2498.21 -78.897 2488.43 -94.52 2488.6 -94.6 C 2494.8 -96.479 2493.13 -87.417 2497.86 -86.713 C 2498.17 -82.534 2493.22 -76.636 2494.13 -71.221 C 2494.92 -67.523 2491.42 -62.661 2488.53 -62.621 C 2486.58 -59.667 2488.17 -60.209 2490.69 -56.332 C 2490 -52.714 2494.46 -46.837 2504.48 -38.227 C 2511.1 -30.752 2506.03 -35.886 2519.76 -24.894 C 2523.95 -21.911 2531.18 -10.739 2533.99 -16.173 C 2536.5 -21.67 2529 -26.16 2536.31 -29.345 C 2538.22 -31.405 2530.26 -33.987 2531.41 -37.564 C 2536.81 -46.174 2522.61 -52.694 2534.16 -50.001 C 2534.92 -50.815 2530.97 -54.864 2529.33 -54.905 C 2524 -56.332 2522.88 -64.268 2517.52 -63.103 C 2513.05 -61.335 2508.86 -76.586 2509.67 -76.466 C 2517.6 -83.207 2544.33 -74.446 2542.35 -78.616 C 2539.61 -91.907 2568.91 -92.701 2568.93 -94.299 C 2566.16 -99.77 2549.01 -103.19 2547.35 -107.61 C 2551.47 -117.14 2545.35 -114.04 2542.6 -117.73 C 2552.73 -116.94 2565.85 -109.83 2575.57 -109.09 C 2580.84 -108.03 2592.58 -106.2 2593.09 -106.52 C 2582.84 -116.28 2589.86 -113.79 2600.85 -112.38 C 2587.5 -125.33 2565.06 -120.97 2552.09 -126.69 C 2547.46 -128.95 2508.7 -138.59 2496.02 -140.64 C 2491.82 -141.33 2484.99 -142.04 2480.93 -142.23 C 2463.74 -141.85 2463.76 -139.63 2442.97 -140.64 C 2435.99 -140.87 2420.12 -140.94 2418.81 -140.75 C 2402.13 -145.78 2394.39 -149.82 2378.19 -149.19 C 2354.52 -149.14 2333.39 -157.26 2310.55 -159.44 C 2289.81 -162.8 2292.18 -157.88 2292.52 -156.85 C 2305.78 -149.79 2297.22 -152.95 2287.01 -152.98 C 2287.08 -150.39 2265.29 -154.28 2265.6 -152.98 C 2270.65 -141.83 2253.07 -152.63 2249.9 -155.46 C 2240.79 -163.33 2228.48 -163.45 2216.96 -165.97 C 2209.28 -166.86 2210.95 -165.46 2214.35 -161.59 C 2194.62 -162.35 2195.66 -165.22 2168.9 -164.76 C 2163 -166.83 2158.59 -169.68 2156.12 -173.56 C 2154.61 -180.59 2136.74 -182.56 2132.23 -182.59 C 2117.98 -183.64 2112.62 -187.58 2098.15 -188.13 Z M 1155.36 -186.76 C 1148.29 -186.93 1117.94 -180.86 1117.03 -178.4 C 1119.79 -179.09 1141.87 -172.44 1143.32 -171.1 C 1146.78 -166.21 1156.19 -169.86 1157.7 -170.12 C 1163.1 -171.01 1171.18 -171.97 1175.71 -172.21 C 1186.85 -171.94 1202.16 -179.61 1183.17 -178.72 C 1186.47 -183.03 1182.59 -183.22 1179.31 -182.25 C 1171.77 -180.22 1175.91 -176.45 1170.23 -176.33 C 1163.83 -176.22 1163.92 -180.35 1157.52 -181.09 C 1148.77 -180.83 1156.3 -184.36 1157.93 -184.72 C 1163.12 -186.31 1156.99 -186.77 1155.36 -186.76 Z M 1946.1 -184.34 C 1943.65 -184.24 1941.26 -183.6 1939.34 -182.43 C 1933.21 -179.22 1915.22 -181.92 1911.57 -178.04 C 1909.91 -175.61 1900.98 -175.34 1901.29 -173.04 C 1897.92 -163.83 1894.96 -163.28 1889.98 -154.42 C 1891.99 -148.87 1919.9 -142.96 1921.73 -146.89 C 1921.14 -145.29 1902.32 -152.81 1908.98 -159.01 C 1912.62 -161.5 1915.37 -169.16 1920.1 -170.19 C 1927.42 -174.6 1933.7 -175.93 1939.59 -177.12 C 1954.69 -180.07 1957.71 -181.99 1950.46 -183.93 C 1949.06 -184.26 1947.58 -184.4 1946.1 -184.34 Z M 2263.1 -179.46 C 2259.49 -179.44 2256.64 -178.96 2256.6 -177.28 C 2256.6 -174.84 2259.62 -173.37 2269.54 -171.09 C 2276.56 -170.52 2293.97 -171.18 2295.08 -174.76 C 2290.18 -179.39 2284.21 -177.27 2276.26 -178.91 C 2273.58 -178.77 2267.72 -179.49 2263.1 -179.46 Z M 1113.86 -170.52 C 1105.63 -170.56 1096.67 -168.22 1091.39 -165.03 C 1085.72 -161.97 1073.97 -159.05 1069.87 -154.62 C 1104.45 -149 1103.74 -145.19 1063.48 -140.45 C 1069.27 -146.34 1036.11 -136.36 1038.96 -144.11 C 1030.95 -152.14 988.808 -131.21 988.788 -139.45 C 979.703 -148.74 932.112 -139.02 927.459 -149.4 C 903.6 -149.23 866.26 -146.78 845.942 -131.04 C 858.121 -118.96 836.333 -120.88 835.154 -120.64 C 832.233 -119.59 807.493 -115.89 812.56 -113.78 C 815.733 -101.91 823.731 -106.69 833.784 -106.52 C 833.029 -102.79 814.182 -98.892 811.643 -99.3 C 803.404 -98.296 794.187 -91.637 787.034 -89.828 C 766.587 -70.377 802.618 -77.189 781.474 -68.639 C 777.384 -64.861 795.285 -70.799 794.69 -67.253 C 821.083 -74.687 779.148 -54.653 764.924 -49.66 C 742.149 -46.726 736.207 -45.26 731.039 -38.337 C 735.219 -37.121 758.115 -46.736 759.425 -42.829 C 770.787 -44.858 782.432 -53.057 793.291 -55.307 C 795.144 -58.06 839.475 -76.947 839.042 -72.005 C 844.351 -73.652 865.715 -74.979 870.5 -77.249 C 880.18 -76.054 881.842 -76.425 891.31 -77.038 C 904.044 -78.073 914.832 -64.761 909.453 -57.537 C 912.917 -50.173 904.417 -41.17 912.122 -40.487 C 914.802 -40.518 920.266 -25.317 917.708 -20.936 C 921.263 -10.829 910.349 -11.281 910.37 -10.769 C 904.769 -10.055 923.801 5.357 920.598 5.126 C 917.96 4.925 917.606 5.376 915.461 12.058 C 914.036 16.519 909.09 25.672 906.924 27.902 C 896.398 36.864 892.952 50.92 885.68 59.851 C 883.444 62.243 881.41 74.118 882.125 75.716 C 883.364 86.858 884.875 93.88 885.146 104.33 C 901.223 113.412 898.231 120.063 901.122 134.018 C 900.589 140.217 904.417 144.406 907.217 148.677 C 908.083 149.089 905.302 158.492 909.11 164.903 C 918.896 169.373 914.418 173.121 913.231 179.249 C 918.836 183.479 922.613 191.829 925.515 193.476 C 933.825 190.482 926.139 185.126 924.124 176.617 C 923.751 172.668 920.306 159.618 917.335 157.829 C 917.658 143.824 917.023 150.384 911.769 142.227 C 909.523 138.469 911.316 127.447 914.711 128.884 C 922.211 130.833 920.266 133.987 920.992 139.614 C 922.441 152.776 917.586 145.361 925.061 153.227 C 930.038 161.065 934.238 167.736 933.069 171.533 C 942.165 183.188 952.116 190.201 952.126 205.021 C 952.338 211.163 948.173 213.084 951.406 218.172 C 958.322 225.734 980.187 239.363 986.976 240.305 C 1001.36 248.723 1003.47 245.084 1015.06 243.748 C 1018.58 243.748 1022.88 246.527 1026.13 250.847 C 1031.48 258.024 1034.12 260.064 1038.83 260.822 C 1053.4 264.258 1068.22 275.089 1069.09 285.702 C 1074.33 287.755 1082.83 301.365 1083.43 301.408 C 1092.62 303.438 1099.4 312.191 1103.47 310.255 C 1105.42 299.76 1111.25 297.769 1119.14 309.292 C 1124.61 318.322 1122.61 341.037 1116.39 344.438 C 1110.72 347.7 1112.75 354.092 1107.83 355.978 C 1100.71 356.099 1100.2 379.367 1098.47 379.745 C 1099.82 387.323 1099.44 386.921 1099.38 391.983 C 1092.9 394.358 1098.34 409.894 1101.67 411.613 C 1108.6 416.606 1113.26 426.087 1116.82 433.936 C 1118.17 438.323 1133.91 464.617 1133.75 465.401 C 1137.58 486.233 1171.11 488.637 1176.97 505.177 C 1178.33 517.817 1183.2 567.478 1180.71 577.172 C 1184.11 597.82 1187.79 609.63 1185.44 632.302 C 1182.4 645.293 1189.39 662.684 1192.28 676.794 C 1195.19 689.386 1197.43 702.513 1196.72 711.39 C 1209.17 738.039 1225.83 754.661 1235.01 763.2 C 1245.36 766.617 1249.71 773.649 1263.98 773.7 C 1273.23 777.749 1276.33 771.76 1278.64 770.424 C 1290.46 766.536 1272.36 767.551 1261.4 757.092 C 1258.14 750.983 1248.41 745.496 1247.96 738.671 C 1256.22 732.005 1249.18 729.228 1256.37 722.836 C 1264.74 713.6 1246.16 711.849 1243.7 707.69 C 1256.11 699.271 1243.88 687.063 1256.24 682.647 C 1252.35 669.366 1245.65 681.16 1244.68 668.19 C 1258.04 674.486 1265.55 665.968 1258.63 656.658 C 1254.79 652.211 1279.83 659.116 1284.19 646.674 C 1286.73 638.313 1282.86 626.85 1275.4 622.578 C 1273.1 621.959 1270.8 616.667 1273.6 619.179 C 1291.13 622.354 1297.87 630.149 1303.1 614.661 C 1305.99 605.287 1315.91 596.563 1317.83 588.438 C 1318.84 583.902 1321.49 578.972 1323.5 577.845 C 1328.1 573.312 1322.47 553.15 1324.66 552.913 C 1337.51 543.855 1342.99 535.901 1358.66 535.383 C 1362.43 535.814 1369.68 527.388 1369.27 525.777 C 1371.65 523.629 1376.98 498.171 1377.02 498.126 C 1381.75 493.094 1375.83 460.882 1381.33 460.613 C 1385.43 450.45 1398.17 439.227 1402.39 429.279 C 1404.71 418.989 1403.31 411.592 1399.45 402.31 C 1389.38 400.382 1386.18 398.507 1381.24 393.781 C 1363.39 384.874 1348.62 382.899 1335.94 372.833 C 1329.16 374.456 1317.97 366.933 1310.29 364.798 C 1303.12 360.839 1296.5 346.757 1296.23 336.904 C 1295.83 330.769 1275.55 316.398 1264.38 319.453 C 1251.59 320.406 1250.7 311.297 1246.33 305.976 C 1243.24 301.694 1231.3 299.422 1233.05 296.862 C 1228.21 291.977 1234.79 281.794 1231.84 282.852 C 1218.46 285.806 1217.38 282.029 1207.94 287.584 C 1206.22 283.894 1185.09 286.255 1185 282.956 C 1178.84 275.75 1175.35 270.467 1173.3 272.714 C 1170.16 283.491 1162.82 286.049 1165.73 271.716 C 1161.85 271.65 1147.49 282.119 1143.2 281.132 C 1139.7 280.254 1134.93 287.267 1135.72 292.156 C 1134.1 294.906 1126.39 298.157 1126.96 301.218 C 1119.63 296.758 1114.66 290.044 1105.48 294.788 C 1093.29 301.097 1089.84 293.412 1083.95 281.941 C 1084.21 276.446 1088.11 255.986 1090.08 252.81 C 1090 247.249 1075.13 242.507 1071.38 244.771 C 1066.3 246.685 1058.35 244.617 1054.54 245.092 C 1053.69 230.239 1074.17 215.134 1072.48 204.59 C 1070.49 201.003 1050.92 203.69 1048.8 208.11 C 1039.57 231.967 1025.2 226.494 1013.53 223.686 C 1009.49 221.583 1002.59 202.961 1003.48 196.842 C 1008.32 177.813 1014.13 157.658 1026.61 150.153 C 1033.26 145.512 1049.09 139.754 1055.59 145.351 C 1082.27 148.727 1072.97 130.793 1091.6 139.293 C 1104.51 151.651 1107.47 133.987 1107.83 153.308 C 1107.14 154.634 1106.68 156.644 1106.8 157.769 C 1108.12 166.601 1111.45 173.613 1116.94 177.562 C 1128.04 176.628 1122.14 149.129 1121.48 146.366 C 1118.49 135.063 1126.07 124.986 1134.48 120.656 C 1138.49 117.632 1153.87 106.318 1158.55 106.048 C 1171.43 94.152 1178.99 84.205 1177.78 75.314 C 1177.54 73.777 1177.71 72.309 1178.14 72.039 C 1178.57 71.757 1178.96 72.129 1178.96 72.872 C 1178.96 74.772 1179.5 74.6 1183.58 71.255 C 1185.58 69.617 1187.75 66.944 1188.38 65.317 C 1189.41 62.645 1190.06 62.253 1194.4 61.358 C 1200.4 60.133 1205.25 58.083 1202.67 57.862 C 1218.62 57.25 1213.25 48.448 1213.98 47.856 C 1217.42 41.927 1222.77 38.632 1228.12 36.774 C 1237.57 36.885 1246.97 24.797 1256.14 26.878 C 1252.86 31.348 1240.26 33.639 1245.78 39.466 C 1258.67 41.405 1263.67 30.082 1278.04 28.194 C 1281.52 24.436 1288.04 23.542 1288.51 21.091 C 1283.62 19.262 1288.93 16.69 1287 14.69 C 1272.53 23.059 1267.34 19.241 1261.19 14.449 C 1265.16 8.109 1272.06 -1.887 1263.21 -1.786 C 1254.93 0.996 1258.37 -1.254 1255.66 -4.048 C 1262.49 -10.517 1274.3 -8.347 1280.93 -8.327 C 1304.44 -5.323 1306.51 -16.857 1317.33 -17.008 C 1322.12 -17.651 1318 -15.068 1316.1 -13.24 C 1299.15 4.986 1290.24 10.109 1305.33 11.013 C 1327.33 11.888 1325.63 11.697 1324.26 13.184 C 1323.26 26.446 1334.9 11.656 1333.38 7.517 C 1329.38 8.04 1327.46 2.302 1332.08 -0.129 C 1333.78 -2.56 1331.01 -3.153 1331.12 -5.102 C 1322.97 -1.104 1323.64 -7.383 1318.28 -8.508 C 1324.74 -14.345 1323.6 -11.11 1326.28 -16.154 C 1318.82 -18.224 1327.85 -20.232 1329.61 -26.612 C 1330.3 -36.67 1323.22 -43.662 1312.24 -45.119 C 1312.24 -59.165 1306.19 -64.791 1307.87 -82.413 C 1308.17 -80.263 1299.43 -75.219 1298.43 -74.265 C 1295.53 -71.623 1286.07 -64.439 1282.66 -67.082 C 1275.9 -71.753 1277.91 -78.787 1283.13 -83.629 C 1275.05 -87.196 1274.76 -86.995 1267.88 -94.681 C 1259.52 -93.686 1243.6 -98.599 1242.44 -89.697 C 1226.27 -71.804 1229.64 -75.29 1230.71 -61.596 C 1230.71 -59.476 1227.49 -52.775 1225.69 -51.167 C 1218.51 -46.023 1210.7 -43.261 1202.2 -41.773 C 1205.57 -31.606 1187.85 -9.724 1186.72 -18.736 C 1174.85 -21.67 1195.96 -38.719 1190.28 -44.064 C 1176.07 -41.602 1170.13 -53.157 1160.68 -56.141 C 1155.12 -58.964 1151.55 -58.572 1146.03 -57.457 C 1145.39 -57.447 1146.36 -61.937 1147.8 -65.494 C 1147.09 -69.172 1139.31 -67.523 1150.32 -80.695 C 1150.63 -80.706 1153.23 -82.434 1156.06 -84.543 C 1166.83 -91.898 1180.35 -95.755 1190.83 -102.32 C 1197.75 -106.63 1203.06 -101.08 1207.79 -101.2 C 1216.63 -97.072 1209.52 -98.882 1220.77 -101.35 C 1229.59 -108.02 1228.41 -98.286 1237.95 -101.43 C 1238.78 -113.26 1250.46 -130.78 1257.07 -133.19 C 1258.94 -141.06 1274.27 -140.52 1267.38 -130.8 C 1282.87 -133.35 1270.74 -128.99 1272.54 -125.42 C 1290.9 -127.69 1293.09 -125.77 1285.5 -120.74 C 1288.87 -112.74 1250.68 -112.61 1254.82 -106.99 C 1269.82 -106.63 1280.18 -110.87 1280.51 -99.63 C 1284.17 -93.767 1311.97 -85.246 1311.18 -89.326 C 1306.03 -88.191 1302.97 -97.902 1309.53 -96.71 C 1315.9 -92.49 1314.79 -95.163 1319.93 -100.11 C 1308.16 -113.55 1317.47 -115.97 1327.39 -110.79 C 1335.1 -112.93 1342.02 -116.99 1348.26 -121.74 C 1343 -126.62 1329.55 -129.98 1324.74 -134.78 C 1344.99 -149.57 1299.04 -154.21 1304.91 -161.03 C 1304.91 -163.5 1301.85 -164.81 1294.97 -165.3 C 1285.12 -164.83 1279.11 -164.71 1267.8 -166.03 C 1261.9 -168.32 1245.33 -163.22 1238.26 -156.91 C 1227.21 -148.63 1230.91 -140.98 1238.09 -143.59 C 1216.8 -113.45 1216.95 -147.32 1216.2 -153.91 C 1220.11 -158.1 1246.55 -165.53 1245.29 -166.83 C 1241.52 -168.09 1237.7 -167.58 1233.73 -168.1 C 1231.31 -168.43 1220.92 -165.89 1219.23 -164.41 C 1213.43 -161.69 1213.74 -156.02 1208.49 -153.88 C 1203.5 -152.5 1198.47 -146.71 1195.75 -145.21 C 1183.76 -140.36 1176.86 -136.41 1171.83 -131.28 C 1170.02 -129.41 1169.17 -129.24 1160.15 -129.11 C 1146.57 -129.57 1143.3 -132.67 1157.94 -133.95 C 1160.95 -137.28 1172.41 -139.34 1172.89 -142.93 C 1172.88 -143.83 1169.24 -145.81 1164.92 -147.25 C 1160.61 -150.52 1178.55 -163.06 1179.8 -164.21 C 1178.48 -166.07 1159.17 -161.69 1158.06 -160.54 C 1149.57 -149.6 1155.58 -156.54 1152.59 -159.93 C 1145.04 -162.05 1134.39 -157.43 1129.78 -165.44 C 1126.27 -169.04 1120.29 -170.5 1113.86 -170.53 L 1113.86 -170.52 Z M 1214.31 -167.56 C 1202.44 -165.92 1200.79 -166.99 1194.98 -165.09 C 1194.45 -157.51 1188.35 -163.3 1183.19 -160.67 C 1180.54 -155.87 1188.85 -156.35 1188.81 -152.27 C 1194.16 -148.61 1203.29 -151.85 1208.71 -156.99 C 1212.23 -160.09 1215.04 -163.78 1214.31 -167.56 Z M 1570.32 -120.47 C 1562.66 -120.18 1550.86 -115.9 1550.32 -117.05 C 1546.11 -112.64 1543.85 -117.04 1539.98 -119.28 C 1534.89 -122.61 1530.82 -117.62 1526.95 -114.66 C 1526.49 -112.57 1543.73 -112.99 1531.52 -111.1 C 1527.47 -110.56 1526.44 -110.06 1527.05 -109.09 C 1534.95 -108.35 1539.9 -110.17 1531.79 -103.6 C 1531.79 -102.73 1532.82 -102.49 1535.91 -102.67 C 1543.67 -101.85 1550.17 -98.801 1557.49 -101.25 C 1562.52 -103.19 1580.44 -107.53 1580.95 -112.47 C 1573.84 -115.66 1577.63 -120.42 1574.74 -119.93 C 1573.63 -120.39 1572.07 -120.55 1570.32 -120.47 Z M 1765.97 -115.17 C 1767.88 -115.17 1769.81 -114.91 1771.53 -114.58 C 1777.29 -112.94 1767.76 -107.97 1763.9 -103.35 C 1758.39 -96.72 1757.61 -92.35 1757.27 -84.463 C 1757.02 -78.053 1761.6 -79.319 1765.75 -76.315 C 1765.92 -75.743 1768.32 -76.023 1772.38 -77.108 C 1778.18 -77.36 1783.45 -79.791 1788.43 -80.182 C 1798.15 -80.173 1796.68 -78.897 1793.17 -74.828 C 1793.17 -73.753 1788.87 -73.783 1780.23 -74.908 C 1768.76 -73.763 1773.3 -66.529 1766.26 -71.17 C 1763.7 -70.809 1761.22 -67.132 1761.69 -65.414 C 1761.81 -59.366 1758.15 -65.746 1758.06 -49.68 C 1758.57 -45.3 1757.11 -42.829 1754.09 -42.829 C 1753.71 -40.869 1747.29 -35.464 1746.15 -40.216 C 1747.7 -42.748 1735.46 -41.572 1733.23 -38.981 C 1729.67 -36.961 1719.14 -34.66 1718.97 -38.981 C 1714.87 -42.547 1704.36 -33.695 1704.32 -36.75 C 1711.19 -43.712 1711.69 -38.518 1711.47 -45.702 C 1714.64 -50.374 1713.12 -44.998 1718.13 -44.979 C 1721.32 -44.979 1721.99 -45.29 1722.25 -46.677 C 1729.11 -50.856 1732.34 -52.273 1733.9 -51.459 C 1734.95 -52.513 1737.01 -58.643 1736.59 -59.104 C 1732.78 -54.121 1734.79 -61.344 1735.29 -67.021 C 1739.31 -69.463 1752.9 -75.39 1741.84 -80.525 C 1733.38 -85.157 1737.31 -85.086 1737.35 -91.094 C 1738.77 -95.354 1745.19 -101.07 1750.13 -101.35 C 1755.71 -104.86 1758.09 -111.8 1760.39 -114.2 C 1762.14 -114.92 1764.04 -115.17 1765.96 -115.17 L 1765.97 -115.17 Z M 1630.01 -73.221 C 1629.21 -73.231 1628.18 -72.537 1627.13 -70.799 C 1624.59 -65.836 1619.03 -69.643 1616.53 -66.087 C 1614.25 -60.933 1610.55 -62.239 1608.86 -60.873 C 1609.03 -57.829 1606.85 -55.91 1605.91 -53.046 C 1614.69 -51.881 1610.69 -51.981 1607.64 -48.063 C 1611.53 -47.491 1614.62 -40.397 1616.11 -39.915 C 1623.95 -42.798 1621.52 -39.795 1623.86 -37.202 C 1626.58 -32.59 1623.5 -30.771 1619.54 -31.264 C 1614.6 -31.134 1619.1 -30.903 1614.12 -26.311 C 1626.28 -25.266 1604.1 -19.028 1616.2 -18.224 C 1620.32 -18.002 1623.45 -16.144 1619.64 -16.144 C 1616.28 -14.295 1610.2 -10.347 1608.08 -7.494 C 1610.46 -7.092 1620.9 -9.191 1621.72 -10.126 C 1625.61 -11.361 1634.31 -12.557 1638.87 -12.325 C 1642.75 -12.124 1649.92 -14.556 1649.92 -16.094 C 1643.35 -19.982 1654.1 -21.408 1651.72 -26.332 C 1642.14 -33.113 1645.63 -23.558 1642.66 -35.514 C 1641.15 -39.151 1636.56 -39.895 1635.52 -43.491 C 1634.74 -46.787 1632.5 -49.65 1630.78 -49.68 C 1628.53 -51.74 1632.3 -56.954 1634.05 -58.672 C 1636.11 -60.802 1634.64 -61.756 1629.22 -61.756 C 1627.63 -61.947 1622.53 -61.677 1624.03 -63.485 C 1632.59 -66.871 1632.37 -73.2 1630 -73.221 L 1630.01 -73.221 Z M 1603.03 -45.008 C 1600.22 -45.059 1597.56 -44.295 1596.01 -42.396 C 1595.82 -35.454 1587.7 -39.754 1586 -36.8 C 1586.17 -33.766 1585.14 -30.993 1587.29 -30.42 C 1593.32 -28.391 1578.01 -19.921 1583.49 -19.59 C 1585.21 -15.943 1592.62 -17.842 1597.04 -20.122 C 1601.36 -22.151 1606.33 -21.871 1607.39 -25.508 C 1607.72 -32.972 1613.45 -39.724 1611.01 -42.717 C 1608.81 -44.084 1605.83 -44.959 1603.03 -45.008 Z M 1138.18 2.373 C 1146.56 2.243 1145.33 8.783 1144.49 16.981 C 1141.24 18.237 1139.71 14.741 1133.88 17.513 C 1128.12 7.798 1116.26 16.187 1104.69 15.233 C 1118.24 4.422 1119.65 6.994 1132.44 3.167 C 1134.71 2.655 1136.62 2.403 1138.18 2.373 Z M 1867.72 13.807 C 1865.96 15.665 1861.05 16.157 1860.38 17.684 C 1862.29 20.578 1862.5 20.307 1860.9 23.944 C 1860.29 26.114 1862.15 25.913 1857.95 26.797 C 1860.65 27.53 1868.69 34.915 1873.14 38.502 C 1875.74 40.632 1879.6 43.214 1881.86 44.228 C 1884.7 45.545 1886.35 46.971 1887.38 49.202 C 1889.28 52.929 1888.75 54.416 1885.32 56.466 C 1883.4 57.571 1880.47 58.093 1874.53 58.294 C 1869.54 58.797 1851.95 54.285 1850.12 52.055 C 1848.82 50.508 1848.13 50.417 1841.75 51 C 1836.48 51.483 1833.72 52.246 1830.7 53.995 C 1825.41 58.576 1815.87 58.616 1809.57 55.331 C 1807.33 54.155 1804.13 47.424 1805.15 46.319 C 1807.37 42.611 1810.85 32.072 1812.25 31.378 C 1816.15 29.168 1816.75 18.358 1821.97 18.277 C 1823.27 18.277 1824.16 18.78 1824.16 19.543 C 1827.51 22.778 1833.01 20.99 1835.71 22.658 C 1834.28 23.481 1829.7 26.707 1830.7 26.988 C 1839.07 28.364 1836.16 33.267 1839.16 33.629 C 1843.37 32.946 1847.04 29.5 1851.41 29.459 C 1856.84 28.606 1850.99 26.888 1849.34 26.214 C 1847.56 25.913 1845.86 23.381 1844.93 22.417 C 1846.92 20.307 1849.34 17.544 1852.18 17.121 C 1856.02 16.388 1859.87 14.912 1863.49 14.4 L 1867.72 13.807 Z M 1946.66 15.966 C 1951.36 15.937 1953.74 28.364 1950.96 27.309 C 1946.09 26.334 1940 25.099 1940.18 31.238 C 1938.73 32.826 1935.03 31.469 1936.3 33.77 C 1938.53 36.292 1944.03 38.823 1944.07 42.42 C 1956.94 50.307 1952.53 47.483 1953.29 54.426 C 1957.31 56.888 1956.09 53.17 1958.94 52.216 C 1962.49 52.186 1966.89 58.917 1967.29 60.012 C 1961.41 63.488 1964.43 60.495 1961.25 60.444 C 1957.44 59.982 1957.82 59.62 1956.66 61.569 C 1958.15 69.456 1965.24 73.787 1966.31 80.237 C 1968.78 90.635 1966.77 88.877 1957.44 90.997 C 1951.69 90.806 1937.45 83.261 1936.55 78.117 C 1938.34 68.12 1936.77 69.426 1943.19 64.242 C 1939.09 60.223 1934.26 56.627 1930.7 52.839 C 1923.62 45.172 1922.49 43.535 1922.49 40.983 C 1922.49 38.15 1919.99 34.643 1917.06 33.439 C 1922.92 21.623 1941.98 16.68 1945.7 16.147 C 1946.04 16.027 1946.35 15.976 1946.66 15.966 Z M 1138.95 21.884 C 1129.03 27.993 1124.69 42.882 1118.15 49.784 C 1114 53.974 1111.65 54.617 1111.49 51.623 C 1114.26 37.086 1123.53 22.497 1138.95 21.884 Z M 1162.11 22.577 C 1163.3 22.567 1164.38 23.481 1164.99 25.26 C 1167.09 31.208 1163.22 34.574 1160.19 29.459 C 1154.7 26.365 1152.59 39.476 1149.06 41.888 C 1145.55 38.361 1154.57 27.952 1139.67 38.934 C 1146.79 29.098 1148.27 32.001 1143.52 23.633 C 1151.52 22.567 1158.23 22.738 1162.11 22.577 Z M 1718.74 24.446 C 1719.44 24.446 1719.76 24.596 1719.11 25.018 C 1721.88 38.843 1743.59 44.711 1755.08 53.13 C 1753.67 58.455 1757.68 70.682 1759.05 70.772 C 1762.97 71.717 1762.57 75.745 1761.64 77.946 C 1761.61 85.581 1767.63 80.347 1769.4 87.691 C 1775.34 89.711 1777.06 89.179 1778.45 94.865 C 1782.88 86.546 1776.76 85.732 1780.44 86.265 C 1780.13 83.622 1786.13 79.975 1789.68 84.698 C 1794.42 80.478 1771.15 70.059 1775.16 63.72 C 1777.67 64.302 1784.05 69.125 1784.6 63.529 C 1780.07 57.159 1799.32 60.454 1796.14 63.669 C 1791.3 67.688 1793.01 71.777 1795.89 73.023 C 1805.78 73.304 1789.85 82.608 1801.75 83.683 C 1806.82 85.321 1802.25 89.429 1802.53 91.348 C 1809.43 89.541 1807.07 94.514 1807.87 95.729 C 1812.04 97.457 1809.11 90.063 1812.44 90.897 C 1816.46 93.519 1825.83 97.497 1825.13 90.776 C 1824.78 88.254 1831.77 90.465 1835.75 94.142 C 1836.65 94.995 1838.18 95.418 1839.83 95.478 C 1839.21 95.649 1838.55 95.789 1837.9 95.84 C 1835.49 95.84 1836.1 98.502 1838.85 99.909 C 1843.18 101.808 1843.65 99.014 1847.39 97.558 C 1847.83 95.629 1850.4 92.685 1850.23 91.781 C 1849.48 91.901 1848.71 92.132 1847.94 92.384 C 1849.64 90.324 1851.12 90.133 1853.51 91.61 C 1859.1 90.997 1855.67 90.786 1857.73 99.708 C 1858.77 100.823 1859.46 106.59 1858.77 107.453 C 1857.66 108.7 1854.54 118.224 1853.51 123.369 C 1852.89 131.195 1842.89 133.616 1838.58 130.311 C 1835.38 127.518 1825.91 128.523 1822.11 132.059 C 1814.12 135.887 1805.01 126.794 1796.3 128.191 C 1790.23 124.534 1782.53 123.338 1776.31 118.968 C 1775 116.908 1766.8 118.817 1762.93 122.082 C 1763.8 132.119 1768.41 141.252 1751.18 135.475 C 1747.65 132.953 1742.2 131.014 1738.59 131.014 C 1726.92 118.415 1721.38 122.826 1709.62 117.22 C 1699.45 118.315 1693.59 106.409 1704.7 105.766 C 1706.69 105.916 1703.56 97.538 1703.49 97.497 C 1707.25 87.681 1700.78 90.113 1700.3 88.225 C 1699.6 85.541 1696.07 85.019 1692.18 87.039 C 1685.37 83.632 1672.4 92.664 1668.03 89.892 C 1665.71 88.465 1663.29 88.566 1651.64 90.515 C 1641.89 92.142 1636.1 94.142 1636.1 95.89 C 1636.1 96.382 1635.51 96.563 1634.82 96.292 C 1629.45 96.121 1624.66 105.725 1618.6 100.973 C 1614.4 100.11 1609.17 102.46 1605.91 100.13 C 1598.97 93.076 1610.51 90.656 1615.84 90.585 C 1623.89 93.399 1624.41 85.894 1629.3 84.838 C 1630.88 83.954 1639.33 75.364 1637.65 73.978 C 1632.24 69.527 1644.4 58.164 1646.39 57.862 C 1656 53.883 1656.92 51.875 1656.82 45.284 C 1656.82 41.054 1665.97 39.537 1671.22 42.882 C 1677.41 45.706 1684.57 37.638 1689.96 34.332 C 1703.69 33.76 1698.71 44.299 1699.18 46.268 C 1705.24 44.108 1710.46 56.506 1718.34 57.4 C 1723.42 59.37 1732.57 66.694 1734.03 70.742 C 1737.21 79.162 1725.01 80.328 1719.44 79.905 C 1714.36 79.463 1712.9 79.926 1712.9 81.955 C 1715.48 83.552 1724.3 90.002 1727.4 90.776 C 1733.37 90.997 1727.87 80.056 1732.81 81.553 C 1737 80.809 1744.18 71.706 1740.07 69.024 C 1736.75 65.739 1742.9 62.725 1747.22 67.035 C 1748.52 68.311 1748.69 68.271 1749.46 66.573 C 1747.43 56.807 1736.06 58.434 1735.57 51.784 C 1723.62 53 1722.81 41.425 1716.17 37.346 C 1711.91 34.533 1711.61 26.556 1714.88 25.32 C 1715.41 24.908 1717.6 24.446 1718.74 24.446 Z M 2474.74 25.16 C 2467.33 30.484 2482.29 30.022 2480.18 38.451 C 2480.06 47.564 2471.75 41.838 2476.21 50.357 C 2476.73 48.73 2480.45 51.522 2481.03 54.044 C 2482.23 56.114 2483.84 56.084 2484.92 55.21 C 2484.72 62.836 2493.59 68.985 2489.66 75.183 C 2482.21 88.626 2481.07 77.414 2478.79 78.961 C 2475.83 82.809 2484.74 82.628 2477.94 87.24 C 2476 89.239 2479.1 90.846 2478.11 92.343 C 2475.56 93.137 2473.06 91.75 2470.42 92.374 C 2468.32 93.448 2459.23 92.444 2459.13 94.333 C 2454.75 98.642 2453.05 101.828 2450.33 106.148 C 2447.04 108.73 2445 110.186 2447.56 112.98 C 2451.68 115.713 2453.6 118.566 2455.24 124.242 C 2456.89 126.423 2459.5 127.639 2461.1 125.96 C 2463.91 121.028 2463.03 117.592 2462.48 111.714 C 2462 107.303 2471.95 118.737 2470 113.431 C 2469.98 103.777 2477.53 115.17 2476.73 104.902 C 2477.11 100.26 2481.05 108.318 2483.63 108.891 C 2487.3 104.681 2487.8 102.813 2493.22 100.572 C 2499.64 101.144 2495.56 93.288 2498.47 98.663 C 2503.5 103.997 2499.28 92.162 2504.33 97.186 C 2508.44 99.919 2508.84 91.439 2507.44 89.821 C 2504.38 85.561 2506.26 80.578 2503.14 76.911 C 2499.98 73.214 2502.7 73.787 2504.86 72.661 C 2504.11 61.811 2494.74 57.772 2491.91 50.498 C 2490.9 49.593 2490.05 49.091 2489.35 48.83 C 2490.48 48.83 2491.51 48.941 2492.16 49.202 C 2506.55 55.491 2492.56 45.213 2502.53 44.932 C 2505.45 44.902 2508.3 43.253 2508.3 41.647 C 2504.31 39.426 2505.26 36.111 2508.3 33.961 C 2506.09 31.228 2504.58 33.93 2504.33 35.538 C 2503.2 36.071 2497.66 36.442 2493.38 34.895 C 2486.16 34.834 2481.42 25.853 2474.74 25.16 Z M 1183.19 30.434 C 1186.26 30.434 1185.04 32.856 1181.09 34.574 C 1177.53 34.513 1157.46 37.748 1166.58 33.287 C 1171.41 32.444 1179.72 30.474 1183.19 30.434 Z M 1695.09 37.698 C 1693.59 39.657 1690.48 40.169 1689.4 42.319 C 1688.6 47.223 1694.2 50.267 1690.96 52.407 C 1688.9 54.185 1684.08 51.071 1687.5 56.687 C 1689.54 60.133 1685.69 65.759 1688.53 68.09 C 1691.65 70.169 1691.65 66.885 1694.16 66.824 C 1695.87 67.497 1696.39 65.94 1696.63 58.545 C 1696.81 53.632 1696.63 52.477 1695.26 51.493 C 1693 48.348 1695.58 44.892 1695.61 40.843 C 1695.61 38.582 1695.44 37.677 1695.09 37.698 Z M 1164.81 39.125 C 1160.28 42.299 1143.45 51.302 1138.12 48.458 C 1136.83 47.052 1142.25 45.595 1146.52 43.425 C 1155.78 40.672 1156.37 40.863 1163.35 39.396 C 1164.11 39.225 1164.58 39.125 1164.81 39.125 Z M 2487.28 48.941 C 2486.5 49.493 2486.04 50.649 2485.74 51.824 C 2485.43 51.292 2484.97 50.809 2484.16 50.448 C 2482.72 49.845 2484.8 49.192 2487.28 48.941 Z M 1784.25 92.765 C 1782.92 92.836 1782.04 93.218 1781.92 94.071 C 1782.14 97.728 1801.53 99.416 1799.61 95.84 C 1796.31 95.137 1788.26 92.564 1784.25 92.765 Z M 2413.78 169.856 C 2411.99 169.735 2409.67 172.016 2408.2 175.874 C 2404.57 187.026 2409.25 186.945 2411.74 193.848 C 2413.74 196.51 2414.32 189.618 2414.76 188.462 C 2415.46 186.503 2416.13 181.881 2416.31 178.195 C 2416.88 172.478 2415.58 169.966 2413.78 169.856 Z M 1106.61 190.874 C 1105.08 190.884 1103.71 191.015 1102.66 191.305 C 1101.21 191.697 1098.24 192.471 1096.02 193.023 C 1090.96 194.089 1082.93 200.92 1087.02 201.767 C 1102.09 197.856 1100.83 199.474 1111.71 199.856 C 1121.73 202.611 1129.4 208.242 1130.35 215.022 C 1129.78 216.475 1147.97 216.088 1151.78 214.565 L 1154.33 213.55 C 1150.84 211.724 1143.04 205.993 1141.22 205.425 C 1137.55 204.332 1132.41 199.986 1132.41 197.998 C 1132.41 197.444 1132.17 197.224 1131.88 197.515 C 1125.24 198.349 1116.82 190.994 1106.61 190.874 Z M 600.513 198.821 C 599.002 199.032 597.36 199.765 598.296 200.91 C 601.097 204.002 602.598 198.77 600.513 198.821 Z M 595.616 200.408 C 594.509 201.099 594.751 202.054 595.133 202.997 C 596.141 202.098 596.03 201.114 595.616 200.408 Z M 609.004 202.66 C 607.956 202.767 606.788 203.912 607.171 205.079 C 607.926 207.03 610.364 206.796 610.364 204.776 C 610.525 203.122 609.81 202.577 609.004 202.66 Z M 614.221 206.697 C 613.305 206.667 612.549 206.794 612.257 207.098 C 613.224 210.112 617.354 212.475 619.48 210.664 C 621.323 208.297 617.002 206.79 614.221 206.697 Z M 621.182 213.764 C 617.435 214.854 617.455 227.16 620.346 222.857 C 622.401 221.166 624.416 220.508 626.913 219.453 C 625.413 216.878 623.6 214.109 621.182 213.764 Z M 1162.37 214.852 C 1161.1 214.854 1160.13 214.955 1159.61 215.184 C 1156.53 216.579 1156.34 217.93 1159.21 217.93 C 1167.98 230.913 1151.58 222.24 1149.6 225.753 C 1151.73 233.58 1163.96 227.311 1167.1 231.105 L 1168.87 233.497 C 1173.8 225.742 1179.18 226.877 1187.41 229.118 C 1192.37 222.81 1181.95 220.032 1180.74 218.463 C 1178.66 216.735 1167.82 214.845 1162.37 214.852 Z M 2420.46 219.145 C 2418.34 219.208 2416.43 220.001 2415.83 221.917 C 2414.57 224.374 2418.07 239.824 2415.75 236.762 C 2412.98 233.355 2412.64 236.184 2414.87 243.103 C 2417.28 247.431 2416.82 250.796 2418.01 254.186 C 2417.89 257.183 2421.34 259.881 2423.16 263.387 C 2425.07 267.011 2426.35 267.708 2427.73 265.806 C 2429.2 263.887 2428.52 260.263 2426.35 258.387 C 2431.02 253.95 2439.26 265.054 2439.3 266.529 C 2439.3 268.905 2439.55 269.721 2440.07 268.921 C 2442.59 267.209 2447.23 272.589 2444.81 267.854 C 2443.26 265.192 2445.02 264.076 2445.51 261.769 C 2443.96 258.391 2444.67 259.142 2446.01 256.873 C 2446.98 256.304 2447.06 255.72 2446.28 254.291 C 2445.08 252.165 2443.6 251.881 2443.6 253.782 C 2441.06 255.973 2435.39 250.736 2432.05 251.124 C 2427 251.443 2428.76 248.322 2432.39 248.378 C 2432.39 247.518 2429.37 245.634 2427.9 245.609 C 2424.94 244.668 2425.54 238.776 2428.09 238.697 C 2433.03 233.241 2427.96 228.289 2427.9 223.103 C 2428.19 220.968 2424.05 219.042 2420.49 219.145 L 2420.46 219.145 Z M 1201.04 225.797 C 1198.67 225.84 1196.59 226.578 1196.36 228.394 C 1197.44 232.061 1211.27 230.816 1207.37 227.371 C 1206.04 226.409 1203.42 225.755 1201.04 225.797 Z M 1128.58 226.095 C 1125.02 226.025 1122.42 227.067 1126.15 229.711 C 1131.5 234.17 1131.7 230.88 1135.88 230.838 C 1139.38 228.114 1133.16 226.186 1128.58 226.095 Z M 2449.47 269.709 C 2447.71 269.61 2446.22 270.115 2446.2 271.354 C 2453.95 286.446 2445.65 281.37 2455.43 291.363 C 2456.87 297.225 2454.91 296.628 2451.37 294.539 C 2450.62 297.492 2449.09 303.622 2446.2 300.373 C 2443.83 297.971 2441.5 299.346 2440.16 301.827 C 2435.66 304.934 2433.39 306.22 2433.94 311.56 C 2438.35 311.314 2440.81 310.119 2441.44 309.194 C 2444.6 309.437 2444.39 305.63 2446.11 306.56 C 2449.32 310.159 2446.65 315.476 2450.09 318.308 C 2453.77 319.824 2458.59 325.626 2458.8 322.86 C 2460.72 317.779 2457.31 312.619 2459.32 312.13 C 2461.55 312.493 2460.97 314.926 2462.15 316.535 C 2467.14 317.755 2462.91 296.714 2460.68 294.212 C 2460.19 294.505 2460.09 293.375 2460.51 291.474 C 2456.05 285.099 2455.09 286.189 2454.83 274.641 C 2456.03 271.718 2452.36 269.874 2449.47 269.708 L 2449.47 269.709 Z M 2431.28 275.074 C 2431.02 277.018 2432.28 280.009 2432.14 282.412 C 2441.15 287.932 2433.35 288.153 2436.03 292.817 C 2436.98 294.364 2438.74 294.572 2439.66 295.831 C 2441.31 290.89 2445.51 293.61 2449.13 292.31 C 2450.24 285.84 2446.32 280.493 2441.12 281.629 C 2438.48 280.823 2441.17 277.358 2438.52 277.328 C 2435.82 277.204 2433.81 275.516 2431.28 275.074 Z M 2416.86 278.428 C 2413.65 280.116 2414.49 284.013 2412.39 287.009 C 2412.02 292.646 2405.87 293.647 2403.17 298.705 C 2401.89 300.106 2402.68 304.434 2404.01 302.12 C 2408.11 299.108 2413.48 287.83 2418.09 286.689 C 2420.4 286.242 2420.78 284.522 2418.59 283.971 C 2416.06 282.242 2417.26 280.236 2418.42 279.302 C 2418.19 279.276 2417.72 279.073 2416.86 278.428 Z M 2418.42 279.302 C 2418.83 279.346 2418.59 278.861 2418.59 279.152 C 2418.55 279.194 2418.49 279.254 2418.42 279.302 Z M 2157.95 290.476 C 2154.99 294.606 2157.53 294.839 2155.45 296.183 C 2157.93 299.914 2156.16 305.625 2156.83 309.599 C 2157.93 315.664 2158.76 322.093 2165.38 318.851 C 2169.86 316.605 2170.98 315.149 2170.98 311.483 C 2170.98 307.981 2167.51 299.762 2165.29 297.904 C 2161.72 294.581 2161.61 290.933 2157.95 290.476 Z M 2403.6 309.773 C 2402 309.871 2400.18 313.216 2397.68 316.052 C 2391.86 326.219 2386.28 327.785 2378.88 336.706 C 2366.14 339.158 2361.78 355.203 2355.94 349.264 C 2355.25 347.354 2352.76 348.885 2351.09 352.275 C 2349.64 355.141 2349.74 358.274 2351.09 365.701 C 2356.85 378.059 2355.72 369.08 2357.75 382.483 C 2377.37 384.841 2364.11 393.363 2386.65 392.722 C 2386.71 392.669 2398.56 392.504 2398.64 392.318 C 2400.41 385.676 2399.46 377.099 2403.64 373.067 C 2412.04 368.599 2404.47 357.665 2412.79 358.058 C 2418.93 356.797 2399.61 335.166 2412.02 331.921 C 2419.14 322.771 2406.93 319.171 2407.18 317.206 C 2405.96 311.585 2404.84 309.696 2403.6 309.772 L 2403.6 309.773 Z M 2260.51 321.412 C 2259.34 321.476 2258.78 322.484 2259.41 325.418 C 2265.96 336.135 2275.09 342.343 2282.95 351.959 C 2282.53 353.748 2285.89 362.466 2287.27 362.931 C 2289.69 363.756 2296.07 375.176 2296.59 379.496 C 2300.33 387.472 2307.39 394.725 2313.23 400.496 C 2320.83 407.974 2320.99 408.078 2323.66 407.14 C 2334.45 405.674 2324.11 413.235 2324.01 413.756 C 2325.64 416.367 2331.75 414.264 2331.88 418.008 C 2338.3 422.94 2350.51 420.756 2356.56 423.653 C 2359.51 426.008 2375.19 426.037 2376.3 427.044 C 2381.59 427.806 2390.23 428.693 2390.97 428.576 C 2394.51 430.368 2398.2 431.832 2401.93 431.802 C 2410.84 426.174 2428.28 431.15 2436.7 429.032 C 2441.12 426.21 2451.43 428.54 2454.64 425.858 C 2455.92 424.533 2453.68 424.265 2445.74 424.755 C 2436.37 426.978 2421.61 425.171 2416.93 426.613 C 2416.9 423.792 2411.36 425.957 2409.35 424.223 C 2398.24 429.474 2386.48 422.86 2378.9 420.719 C 2366.56 419.152 2383.24 417.008 2383.04 415.641 C 2382.76 415.09 2380.28 414.825 2376.55 414.945 C 2356.19 409.585 2360.51 415.051 2356.64 414.643 C 2348.18 417.272 2343.5 406.775 2335.92 407.947 C 2326.13 411.866 2329.75 401.381 2330.16 396.088 C 2330.6 387.302 2331.18 385.564 2333.26 386.675 C 2343.27 388.011 2332.98 381.781 2331.96 376.942 C 2325.66 374.697 2325.41 377.401 2328.85 380.599 C 2324.34 382.509 2319 372.528 2315.48 369.918 C 2312.39 367.361 2318.62 363.675 2315.56 360.857 C 2314.99 356.117 2310.8 357.345 2308.16 353.413 C 2306.57 353.331 2301.86 348.071 2301.68 348.034 C 2293.88 345.601 2287.38 339.24 2282.45 334.368 C 2277.9 330.789 2276.7 324.5 2270.28 324.471 C 2267.32 324.598 2262.79 321.289 2260.51 321.412 Z M 2456.8 350.631 C 2456.72 350.626 2456.67 350.629 2456.61 350.64 C 2448.67 356.655 2444.71 359.811 2433.24 354.781 C 2429.41 351.229 2428.68 356.187 2426.33 356.907 C 2419.06 358.168 2419.85 382.502 2415.03 383.18 C 2412.31 392.542 2418.95 388.292 2419.26 393.429 C 2419.79 397.516 2417.76 401.366 2418.05 405.314 C 2421.09 407.664 2425.09 405.214 2425.22 402.328 C 2425.38 388.878 2425.89 384.883 2427.46 384.393 C 2429.8 383.662 2430.29 384.628 2429.1 387.674 C 2437.28 398.912 2435.55 401.978 2438.5 405.203 C 2442.95 408.25 2443.96 399.782 2444.02 396.382 C 2441.69 393.849 2433.81 378.974 2435.04 377.509 C 2437.08 375.773 2446.18 370.861 2446.18 370.271 C 2446.18 367.956 2444.02 367.181 2441.35 368.576 C 2435.12 370.855 2426.66 380.486 2424.09 364.815 C 2424.94 360.451 2425.72 360.221 2436.68 360.969 C 2445.06 360.891 2461.26 361.989 2457.74 351.872 C 2457.43 351.104 2457.2 350.665 2456.8 350.632 L 2456.8 350.631 Z M 2506.14 365.968 C 2499.89 371.718 2493.63 368.973 2491.89 369.917 C 2494.19 374.634 2506.14 381.138 2509.41 380.924 C 2516.96 386.389 2501.77 384.093 2501.38 385.003 C 2500.46 387.513 2514.54 398.745 2511.99 394.503 C 2510.27 391.277 2514.81 392.637 2515.61 393.023 C 2517.34 393.851 2519.51 395.133 2520.36 395.873 C 2521.23 396.613 2523.14 397.327 2524.52 397.481 C 2554.59 403.415 2550.22 414.418 2536.75 426.018 C 2536.75 427.276 2544.52 427.223 2545.46 425.968 C 2555.2 421.709 2554.24 432.927 2563.16 432.878 C 2575.39 432.997 2569.12 432.884 2571.09 437.395 C 2573.04 433.457 2580.17 418.084 2584.56 421.715 C 2587.75 423.171 2594.53 425.381 2594.56 429.547 C 2599.3 444.023 2621.21 441.48 2622 440.976 C 2612.83 435.576 2609.05 427.042 2603.01 420.967 C 2594.21 411.438 2605.5 415.23 2605.77 412.577 C 2604.73 408.231 2600.78 408.392 2598.18 406.174 C 2590.37 403.652 2595.56 395.853 2593.27 397.834 C 2589.78 390.993 2556.36 382.323 2547.11 377.448 C 2537.74 370.638 2537.76 379.664 2532.96 379.737 C 2528.5 379.913 2528.18 388.203 2523.31 388.342 C 2521.77 388.727 2513.81 381.045 2517.87 378.876 C 2519.86 372.116 2511.91 367.242 2506.14 365.968 Z M 2567.69 443.42 C 2562.04 445.486 2557.51 465.222 2557.01 470.174 C 2556.42 474.7 2551.82 494.821 2544.84 495.054 C 2532.86 485.685 2525.03 481.763 2517.04 474.159 C 2526.01 465.685 2523.89 465.884 2527.84 458.936 C 2516.22 445.39 2501.63 450.86 2490.11 454.657 C 2483.04 458.609 2478.2 473.695 2474.95 473.893 C 2461.26 465.162 2454.25 465.662 2449.07 475.073 C 2430.01 482.981 2436.41 483.174 2420.02 506.57 C 2409.12 516.445 2379.76 514.695 2371.87 528.479 C 2368.22 522.754 2367.15 535.159 2363.75 540.478 C 2359.66 568.823 2358.52 542.134 2361.17 570.253 C 2362.64 579.202 2364.09 613.35 2355.47 613.817 C 2344.34 621.209 2372.09 629.073 2372.82 623.281 C 2383.77 616.932 2395.18 616.544 2407.14 617.154 C 2419 604.582 2438.99 600.743 2454.6 599.539 C 2464.35 595.053 2479.27 612.734 2477.8 620.184 C 2474.97 626.005 2495.91 624.852 2498.76 631.974 C 2499.68 637.272 2494.3 645.222 2505.76 649.701 C 2515.69 653.829 2525.98 647.723 2529.84 654.952 C 2535.81 649.307 2560.28 646.712 2560.87 639.891 C 2569.05 629.373 2579.19 613.58 2590.48 607.386 C 2593.5 604.952 2601.28 596.709 2601.43 593.831 C 2608.48 575 2617.26 560.578 2617.72 548.738 C 2617.65 547.516 2617.55 547.439 2617.22 548.412 C 2613.65 554.48 2604.85 538.126 2605.4 534.109 C 2595.05 526.412 2602.42 509.882 2587.99 507.671 C 2578.23 506.322 2585.57 493.439 2582.02 488.196 C 2578.84 473.345 2572.2 467.877 2572.26 466.656 C 2570.24 451.381 2571.62 454.923 2568.38 443.712 C 2568.2 443.539 2567.96 443.437 2567.69 443.42 Z M 1955.31 452.82 C 1955.25 452.803 1955.2 452.808 1955.16 452.834 C 1951.18 462.698 1944.06 468.79 1941.45 473.832 C 1937.92 477.76 1928.29 483.822 1923.61 483.867 C 1920.43 484.796 1921.65 488.348 1919.97 491.043 C 1916.5 505.267 1924.88 508.601 1915.33 521.809 C 1911.48 525.46 1912.43 552.335 1920.07 552.713 C 1924.37 555.847 1928.32 552.057 1932.05 551.854 C 1939.05 550.337 1941.46 534.491 1944.13 528.514 C 1946.93 517.642 1953.04 508.176 1954.83 497.068 C 1955.69 479.862 1970.65 478.104 1955.42 452.938 C 1955.39 452.879 1955.36 452.838 1955.31 452.821 L 1955.31 452.82 Z M 2712.59 619.84 C 2711.71 619.84 2710.94 620.271 2710.94 620.787 C 2712.21 624.527 2711.36 641.357 2709.91 644.195 C 2705.88 651.97 2700.93 652.649 2695.24 657.102 C 2698.7 659.492 2704.35 666.031 2696.1 667.173 C 2690.85 668.68 2691.08 658.861 2677.29 669.237 C 2669.35 676.739 2657.61 683.346 2650.11 686.535 C 2639.31 690.765 2628.14 696.809 2619.33 702.714 C 2615.96 704.779 2616.04 707.62 2619.51 707.62 C 2626.55 709.203 2622.49 714.149 2636.58 707.706 C 2642.99 704.855 2648.25 700.198 2652.2 696.518 C 2655.91 693.163 2659.87 691.271 2665.22 690.496 C 2670.58 684.911 2681.23 680.143 2687.73 673.284 C 2694.74 669.964 2694.02 676.137 2702.59 669.325 C 2707.51 667.659 2716.57 653.079 2721.29 655.555 C 2726.34 654.201 2739.62 638.778 2727.32 644.799 C 2722.37 648.663 2718.3 642.541 2720.78 639.203 C 2724.41 631.696 2714.02 639.64 2716.04 635.505 C 2719.21 629.817 2717.51 624.331 2712.59 619.841 L 2712.59 619.84 Z M 2515.59 664.03 C 2514.94 664.215 2513.15 666.865 2513.05 667.001 C 2511.06 670.893 2505.53 685.959 2510.37 687.999 C 2520.12 689.877 2529.43 676.719 2532.88 671.391 C 2535.47 667.175 2534.43 666.227 2528.65 667.862 C 2524.67 669.522 2515.73 669.247 2515.79 664.85 C 2515.95 664.181 2515.84 663.969 2515.59 664.03 Z M 1360.92 825.08 C 1346.15 827.933 1337.17 833.138 1332.62 831.53 C 1331.17 837.849 1328.1 830.997 1325.53 834.896 C 1324.63 839.487 1332.64 836.805 1324.43 845.304 C 1317.12 855.251 1320.99 848.308 1315.17 848.921 C 1311.08 850.016 1310.78 856.446 1314.55 856.496 C 1324.76 855.994 1322.38 864.956 1322.33 868.542 C 1317.13 866.202 1311.92 860.435 1306.16 863.459 C 1308.48 872.833 1294.13 864.895 1291.34 869.748 C 1294.86 874.209 1295.32 872.863 1292.84 876.369 C 1320.6 879.353 1293.92 881.895 1308.25 883.603 C 1322.75 883.743 1314.74 890.907 1315.15 889.882 C 1313.9 885.402 1287.4 883.694 1287.31 885.231 C 1280.83 896.604 1260.87 887.893 1252.81 887.471 C 1248.53 888.496 1241.05 883.332 1237.56 885.834 C 1233.27 887.019 1227.96 885.723 1224.32 885.662 C 1211.47 884.959 1202.79 881.443 1193.74 881.363 C 1186.95 880.85 1181.25 882.025 1175.18 884.287 L 1178.34 886.959 C 1184.09 891.741 1186.52 891.792 1193.02 896.081 C 1196.17 899.125 1206.38 901.216 1192.63 899.949 C 1184.81 904.892 1156.77 885.783 1152.41 890.485 C 1161.71 893.991 1166.78 896.623 1160.77 897.025 C 1132.3 899.427 1104.57 890.304 1074.97 889.711 C 1075.99 899.809 1059.69 896.403 1045.14 898.402 C 1041.7 899.748 1034.47 899.527 1034.94 901.064 C 1029.03 906.932 1019.82 899.537 1009.97 904.34 C 999.096 912.679 1002.64 912.709 986.784 911.995 C 974.167 915.171 972.345 914.427 949.714 921.721 C 973.452 933.597 1011.02 947.2 1053.55 961.316 L 1065.18 964.843 L 1697.54 964.843 L 2329.88 964.923 C 2369.95 954.243 2409.83 938.51 2446.34 923.62 C 2451.1 921.64 2462.82 918.627 2439.45 918.365 C 2426.39 920.877 2394.41 909.333 2384.06 913.121 C 2373.82 911.162 2358.86 917.632 2356.62 915.01 C 2355.78 913.553 2360.61 909.675 2367.06 906.49 C 2384.29 903.968 2400.8 892.113 2416.6 892.123 C 2421.36 892.163 2442.88 882.478 2444.62 880.328 C 2445.78 878.218 2429.66 873.556 2426.08 873.446 C 2418.15 872.843 2413.2 871.466 2407.95 866.996 C 2395.73 865.248 2394.76 861.64 2394.08 860.967 C 2388.41 859.822 2377.85 859.46 2371.03 859.761 C 2357.49 849.895 2339.2 847.535 2324.19 846.68 C 2314.08 845.998 2327.91 837.699 2321.17 837.558 C 2319.87 837.558 2316.07 841.004 2314.95 843.234 C 2308.69 848.047 2299.09 843.707 2290.63 845.987 C 2264.49 846.288 2263.9 846.108 2240.5 849.523 C 2230.07 850.629 2219.17 849.724 2213.15 844.189 C 2198.09 848.7 2175.59 844.44 2162.77 844.44 C 2147.56 842.943 2147.34 836.795 2143.03 832.736 C 2133.9 834.945 2126.05 839.738 2115.69 847.193 C 2109.28 848.117 2087.33 850.739 2086.88 847.283 C 2082.75 839.185 2057.49 848.951 2048.9 852.879 C 2035.59 859.37 2020.81 862.785 2007.66 867.508 C 2000.84 869.075 1987.24 858.918 1987.99 857.089 C 1975.39 854.085 1952.38 855.633 1935.62 852.015 C 1923.65 849.935 1930.59 843.124 1914.07 843.837 C 1885.67 850.669 1868.34 858.998 1842.2 862.515 C 1831.58 865.85 1829.31 867.317 1817.88 862.515 C 1811.38 861.881 1803.91 862.334 1797.51 864.322 C 1780.21 871.145 1752.94 873.184 1737.83 869.316 C 1719.37 862.766 1693.89 870.15 1685.12 870.432 C 1682.47 872.039 1646.44 868.814 1645.66 869.397 C 1644.03 871.035 1626.71 872.923 1611.16 873.184 C 1599.18 875.354 1591.47 879.645 1582.79 884.457 C 1570.37 890.143 1569.38 882.368 1563.21 892.203 C 1557.29 898.322 1552.54 895.429 1544.83 898.231 C 1548.73 902.581 1547.13 903.154 1536.82 905.113 C 1528.12 908.49 1519.24 911.142 1510.49 915.351 C 1506.95 917.331 1506 917.502 1498.15 917.079 C 1485.39 914.045 1472.56 917.993 1460.51 916.959 C 1461.78 916.075 1448.81 913.372 1441.73 912.428 C 1427.31 910.218 1414.53 906.591 1399.89 904.169 C 1385.15 901.758 1374.69 898.141 1377.54 896.252 C 1378.21 894.805 1379.22 887.501 1378.68 887.471 C 1372.5 881.282 1357.47 875.023 1357.21 864.494 C 1357.33 861.721 1361.14 862.685 1360.79 860.364 C 1355.92 855.05 1354.62 855.381 1350.43 849.523 C 1346.06 840.19 1359.16 837.709 1360.99 834.464 C 1354.77 824.316 1381.69 830.746 1360.92 825.08 Z" style="stroke-miterlimit: 1; stroke-linecap: round; vector-effect: non-scaling-stroke; paint-order: fill; stroke-width: 5px; fill: url(&quot;#gradient-0&quot;); stroke: rgba(224, 144, 0, 0.294);"/></svg>